<?xml version="1.0" encoding="utf-8"?>
<!-- Generator: Adobe Illustrator 28.3.0, SVG Export Plug-In . SVG Version: 6.00 Build 0)  -->
<svg version="1.1" xmlns="http://www.w3.org/2000/svg" xmlns:xlink="http://www.w3.org/1999/xlink" x="0px" y="0px"
	 viewBox="0 0 16 16" style="enable-background:new 0 0 16 16;" xml:space="preserve">
<style type="text/css">
	.st0{fill:#8C3841;}
	.st1{fill:#AD384E;}
	.st2{fill:#897B9A;}
</style>
<g id="Capa_1">
</g>
<g id="Capa_2">
	<g>
		<path class="st0" d="M15.1,9.8c-1,1.9-2.8,3.7-5.2,4.4v-0.5C12.1,13.1,13.9,11.5,15.1,9.8L15.1,9.8z"/>
		<path class="st0" d="M6.7,14.2v0.2c0,0,0,0,0,0c0,0,0,0,0,0c0,0-0.1,0-0.1,0c-1.5,0-2.9-0.3-3.9-1c-0.1-0.1-0.2-0.1-0.3-0.2
			c0,0-0.1,0-0.1-0.1C2,13,1.8,12.9,1.6,12.7c0,0-0.1-0.1-0.1-0.1C1.3,12.4,1.1,12.2,1,12c0,0,0-0.1-0.1-0.1c-0.2-0.3-0.4-0.6-0.5-1
			c0,0,0-0.1,0-0.1c0,0,0-0.1,0-0.1c0,0,0,0,0,0c0,0,0-0.1,0-0.1c0,0,0-0.1,0-0.1c0,0,0-0.1,0-0.1c0,0,0-0.1,0-0.1c0,0,0,0,0,0
			c0,0,0,0,0-0.1c0,0,0,0,0,0c0,0,0-0.1,0-0.1c0,0,0,0,0-0.1c0,0,0,0,0,0c0,0,0,0,0-0.1c0,0,0,0,0-0.1h0c0,0.3,0.1,0.5,0.2,0.8
			C1.2,12.9,3.7,14.2,6.7,14.2z"/>
		<path class="st1" d="M2.2,13.2c0.1,0.1,0.2,0.2,0.4,0.2C2.4,13.4,2.3,13.3,2.2,13.2z"/>
		<path class="st2" d="M6.7,2v4.3H0.9c1-1.7,2.8-3.3,5.2-4.1C6.3,2.1,6.5,2.1,6.7,2z"/>
		<path class="st2" d="M15.9,6.3H9.8V1.6c2.8,0.1,5.1,1.4,5.9,3.5C15.8,5.5,15.9,5.9,15.9,6.3z"/>
		<path class="st2" d="M15.1,9.4c-0.1,0.2-0.2,0.3-0.3,0.5c-1,1.5-2.7,2.7-4.8,3.4c0,0-0.1,0-0.1,0.1V9.4H15.1z"/>
		<path class="st2" d="M6.7,9.4v4.5c-3,0.1-5.5-1.3-6.3-3.5c-0.1-0.3-0.2-0.6-0.2-1H6.7z"/>
		<path d="M14.4,5.1v1.4c0,0,0,0.1-0.1,0.1h-0.2c0,0-0.1,0-0.1-0.1v-1H11v2.7h2.4V7.5c0,0,0-0.1,0.1-0.1h0.2c0,0,0.1,0,0.1,0.1v2.1
			c0,0,0,0.1-0.1,0.1h-0.2c0,0-0.1,0-0.1-0.1V8.7H11v2.4c0,0.2,0.2,0.4,0.4,0.4h0.5c0,0,0.1,0,0.1,0.1v0.1c0,0,0,0.1-0.1,0.1H9.1
			c0,0-0.1,0-0.1-0.1v-0.1c0,0,0-0.1,0.1-0.1h0.3c0.2,0,0.4-0.2,0.4-0.4V8.7H8.9v1.6c0,0.2,0.2,0.4,0.4,0.4h0.3c0,0,0.1,0,0.1,0.1
			V11c0,0,0,0.1-0.1,0.1H7c0,0-0.1,0-0.1-0.1v-0.1c0,0,0-0.1,0.1-0.1h0.3c0.2,0,0.4-0.2,0.4-0.4V8.7H4.9v2.4c0,0.2,0.2,0.4,0.4,0.4
			h0.3c0,0,0.1,0,0.1,0.1v0.1c0,0,0,0.1-0.1,0.1H2.9c0,0-0.1,0-0.1-0.1v-0.1c0,0,0-0.1,0.1-0.1h0.3c0.2,0,0.4-0.2,0.4-0.4V5.8
			c0-0.2-0.2-0.4-0.4-0.4H2.9c0,0-0.1,0-0.1-0.1V5.2c0,0,0-0.1,0.1-0.1h2.7c0,0,0.1,0,0.1,0.1v0.2c0,0,0,0.1-0.1,0.1H5.3
			c-0.2,0-0.4,0.2-0.4,0.4v2.3h2.8V5c0-0.2-0.2-0.4-0.4-0.4H6.9c0,0-0.1,0-0.1-0.1V4.3c0,0,0-0.1,0.1-0.1h2.7c0,0,0.1,0,0.1,0.1v0.2
			c0,0,0,0.1-0.1,0.1H9.3C9.1,4.5,8.9,4.7,8.9,5v3.2h0.9V5.8c0-0.2-0.2-0.4-0.4-0.4H9.1c0,0-0.1,0-0.1-0.1V5.2c0,0,0-0.1,0.1-0.1
			H14.4z"/>
		<path class="st0" d="M14.2,4.9v1.4c0,0,0,0.1-0.1,0.1h-0.2c0,0-0.1,0-0.1-0.1v-1h-3.1V8h2.4V7.2c0,0,0-0.1,0.1-0.1h0.2
			c0,0,0.1,0,0.1,0.1v2.1c0,0,0,0.1-0.1,0.1h-0.2c0,0-0.1,0-0.1-0.1V8.5h-2.4v2.4c0,0.2,0.2,0.4,0.4,0.4h0.5c0,0,0.1,0,0.1,0.1v0.1
			c0,0,0,0.1-0.1,0.1H8.9c0,0-0.1,0-0.1-0.1v-0.1c0,0,0-0.1,0.1-0.1h0.3c0.2,0,0.4-0.2,0.4-0.4V8.5H8.7v1.6c0,0.2,0.2,0.4,0.4,0.4
			h0.3c0,0,0.1,0,0.1,0.1v0.1c0,0,0,0.1-0.1,0.1H6.8c0,0-0.1,0-0.1-0.1v-0.1c0,0,0-0.1,0.1-0.1h0.3c0.2,0,0.4-0.2,0.4-0.4V8.5H4.7
			v2.4c0,0.2,0.2,0.4,0.4,0.4h0.3c0,0,0.1,0,0.1,0.1v0.1c0,0,0,0.1-0.1,0.1H2.7c0,0-0.1,0-0.1-0.1v-0.1c0,0,0-0.1,0.1-0.1h0.3
			c0.2,0,0.4-0.2,0.4-0.4V5.6c0-0.2-0.2-0.4-0.4-0.4H2.7c0,0-0.1,0-0.1-0.1V4.9c0,0,0-0.1,0.1-0.1h2.7c0,0,0.1,0,0.1,0.1v0.2
			c0,0,0,0.1-0.1,0.1H5.1c-0.2,0-0.4,0.2-0.4,0.4V8h2.8V4.8c0-0.2-0.2-0.4-0.4-0.4H6.7c0,0-0.1,0-0.1-0.1V4.1c0,0,0-0.1,0.1-0.1h2.7
			c0,0,0.1,0,0.1,0.1v0.2c0,0,0,0.1-0.1,0.1H9.1c-0.2,0-0.4,0.2-0.4,0.4V8h0.9V5.6c0-0.2-0.2-0.4-0.4-0.4H8.9c0,0-0.1,0-0.1-0.1V4.9
			c0,0,0-0.1,0.1-0.1H14.2z"/>
	</g>
</g>
</svg>
